<svg width="500" height="500" viewBox="0 0 500 500" fill="none" xmlns="http://www.w3.org/2000/svg">
<rect width="500" height="500" fill="#F3EDE9"/>
<path fill-rule="evenodd" clip-rule="evenodd" d="M202.401 98.0644L220.539 79.928L184.427 43.8195C197.492 39.7656 211.094 36.9336 225.1 35.4572L245.057 55.4121L265.471 35C279.729 36.1746 293.59 38.7514 306.914 42.5924L161.568 187.925L137.05 163.409L137.082 163.377L84.2485 110.549C91.6891 101.681 99.838 93.427 108.608 85.8746L161.6 138.861L177.883 122.58L126.997 71.6994C136.842 64.9282 147.285 58.9623 158.229 53.8968L202.401 98.0644ZM262.173 123.261L333.305 52.1358C344.417 57.0087 355.033 62.8013 365.058 69.4175L286.692 147.777L262.173 123.261ZM385.779 84.9726C394.599 92.4687 402.801 100.67 410.298 109.488L354.545 165.236L372.686 183.376L425.856 130.21C432.473 140.234 438.266 150.849 443.14 161.96L397.204 207.891L413.487 224.173L451.916 185.748C455.893 198.905 458.633 212.6 460 226.696L438.005 248.689L459.787 270.468C458.291 284.458 455.442 298.042 451.375 311.089L305.762 165.49L307.207 164.046L306.953 163.792L385.779 84.9726ZM441.377 337.022C436.311 347.966 430.345 358.407 423.573 368.251L370.989 315.672V266.641L441.377 337.022ZM122.467 311.981V270.344L42.2509 190.136C38.5038 203.575 36.0401 217.549 35 231.918L51.5949 248.511L35.1389 264.966C36.2935 279.239 38.8537 293.116 42.681 306.456L76.1132 273.027L94.2505 291.163L52.3008 333.109C57.1739 344.219 62.967 354.835 69.5836 364.859L122.467 311.981ZM169.519 346.541H122.467V344.557L83.4518 383.568C90.8418 392.48 98.9434 400.782 107.669 408.384L169.519 346.541ZM254.83 346.541H205.794L128.16 424.167C138.067 430.885 148.569 436.792 159.571 441.791L254.83 346.541ZM369.296 346.541H287.535L183.198 450.867C196.186 454.984 209.713 457.892 223.645 459.457L244.714 438.389L266.327 460C280.541 458.772 294.356 456.15 307.634 452.271L269.233 413.873L287.37 395.737L334.185 442.548C345.259 437.632 355.836 431.8 365.821 425.149L311.888 371.222L328.415 354.696L384.72 410.995C393.589 403.555 401.843 395.407 409.396 386.637L369.296 346.541ZM51.7091 163.325C56.5149 152.156 62.2475 141.48 68.8102 131.393L145.728 208.304L121.21 232.82L51.7091 163.325Z" fill="#222222"/>
</svg>
