<?xml version="1.0" standalone="no"?>
<!DOCTYPE svg PUBLIC "-//W3C//DTD SVG 20010904//EN"
 "http://www.w3.org/TR/2001/REC-SVG-20010904/DTD/svg10.dtd">
<svg version="1.0" xmlns="http://www.w3.org/2000/svg"
 width="700.000000pt" height="700.000000pt" viewBox="0 0 700.000000 700.000000"
 preserveAspectRatio="xMidYMid meet">
<metadata>
Created by potrace 1.11, written by Peter Selinger 2001-2013
</metadata>
<g transform="translate(0.000000,700.000000) scale(0.100000,-0.100000)"
fill="#000000" stroke="none">
<path d="M3573 6368 l-143 -143 -140 140 -140 139 -122 -17 c-128 -19 -402
-81 -428 -97 -12 -8 36 -61 235 -260 l250 -250 -125 -125 -125 -125 -305 305
c-168 168 -311 305 -318 305 -26 0 -205 -97 -355 -193 l-79 -50 356 -356 356
-356 -115 -115 -115 -115 -369 369 c-325 325 -371 367 -388 358 -11 -6 -88
-81 -172 -168 l-153 -157 543 -543 544 -544 1012 1012 c557 557 1013 1016
1013 1020 0 16 -356 87 -510 102 l-65 7 -142 -143z"/>
<path d="M4167 5772 l-497 -497 173 -173 172 -172 548 548 c419 419 545 551
535 559 -46 35 -411 233 -430 233 -2 0 -227 -224 -501 -498z"/>
<path d="M4842 5247 l-562 -562 1019 -1019 c560 -560 1021 -1014 1024 -1010
11 18 77 302 91 394 29 180 41 150 -129 320 l-150 150 153 153 153 153 -11 90
c-15 110 -52 297 -81 405 l-22 81 -268 -268 -269 -269 -112 113 -113 112 319
319 319 319 -22 54 c-45 105 -205 388 -220 388 -3 0 -171 -165 -373 -367
l-368 -368 -127 128 -128 127 389 389 389 389 -61 69 c-55 62 -154 160 -242
240 l-36 33 -562 -563z"/>
<path d="M909 5074 c-64 -107 -179 -333 -179 -354 0 -8 217 -232 483 -498
l482 -482 173 173 172 172 -539 539 -538 538 -54 -88z"/>
<path d="M581 4298 c-28 -88 -64 -286 -82 -442 l-10 -99 118 -119 118 -118
-117 -117 -117 -118 10 -85 c19 -168 83 -480 98 -480 3 0 110 103 236 230
l230 230 127 -127 128 -128 -295 -295 -295 -295 64 -127 c35 -70 90 -170 122
-223 l59 -95 367 367 368 368 0 295 -1 295 -552 558 c-304 306 -556 557 -559
557 -4 0 -11 -15 -17 -32z"/>
<path d="M5190 2922 l0 -337 370 -370 c217 -217 373 -366 378 -360 40 59 133
215 183 310 l62 117 -489 489 c-269 269 -492 489 -496 489 -5 0 -8 -152 -8
-338z"/>
<path d="M1435 1900 l-269 -270 34 -37 c89 -98 296 -303 305 -303 6 0 204 194
440 430 l430 430 -332 0 c-213 0 -333 4 -335 10 -2 6 -124 -111 -273 -260z"/>
<path d="M2341 1606 l-543 -544 58 -39 c85 -57 207 -126 297 -169 l79 -37 666
666 667 667 -340 0 -340 0 -544 -544z"/>
<path d="M3295 1420 c-401 -401 -727 -731 -725 -733 23 -19 390 -100 505 -112
l60 -6 145 145 145 146 152 -152 151 -151 153 22 c141 20 387 72 411 87 6 4
-110 126 -256 273 l-266 266 128 128 127 127 325 -325 c179 -179 329 -325 333
-325 17 0 214 102 324 168 l112 67 -377 377 -377 378 118 117 117 118 394
-394 393 -393 75 66 c42 36 119 111 172 168 l97 102 -283 283 -283 283 -570 0
-570 0 -730 -730z"/>
</g>
</svg>
