<svg width="151" height="38" viewBox="0 0 151 38" fill="none" xmlns="http://www.w3.org/2000/svg">
<path d="M60.2734 22.3984C59.7813 18.8438 57.0469 16.7812 53.5 16.7812C49.3203 16.7812 46.1719 19.8281 46.1719 25C46.1719 30.1641 49.2812 33.2188 53.5 33.2188C57.3047 33.2188 59.8281 30.7578 60.2734 27.7031L57.3516 27.6875C56.9844 29.5625 55.4531 30.6172 53.5391 30.6172C50.9453 30.6172 49.0859 28.6719 49.0859 25C49.0859 21.3906 50.9297 19.3828 53.5469 19.3828C55.4922 19.3828 57.0156 20.4844 57.3516 22.3984H60.2734Z" fill="#222222"/>
<path d="M61.9746 33H62.8496C65.4277 33 66.5918 31.1875 66.7793 27.1875L66.9668 23.3203H70.4121V33H73.1465V21H64.3965L64.1855 26.3125C64.0527 29.6797 63.6152 30.6719 62.373 30.6719H61.959L61.9746 33Z" fill="#222222"/>
<path d="M79.4473 33.2422C81.3301 33.2422 82.4551 32.3594 82.9707 31.3516H83.0645V33H85.7832V24.9688C85.7832 21.7969 83.1973 20.8438 80.9082 20.8438C78.3848 20.8438 76.4473 21.9688 75.8223 24.1563L78.4629 24.5313C78.7441 23.7109 79.541 23.0078 80.9238 23.0078C82.2363 23.0078 82.9551 23.6797 82.9551 24.8594V24.9062C82.9551 25.7188 82.1035 25.7578 79.9863 25.9844C77.6582 26.2344 75.4316 26.9297 75.4316 29.6328C75.4316 31.9922 77.1582 33.2422 79.4473 33.2422ZM80.1816 31.1641C79.002 31.1641 78.1582 30.625 78.1582 29.5859C78.1582 28.5 79.1035 28.0469 80.3691 27.8672C81.1113 27.7656 82.5957 27.5781 82.9629 27.2812V28.6953C82.9629 30.0313 81.8848 31.1641 80.1816 31.1641Z" fill="#222222"/>
<path d="M88.627 33H94.4395C97.252 33 98.8613 31.7266 98.8613 29.7422C98.8613 28.0625 97.5566 26.8906 95.6738 26.7266C97.2754 26.4297 98.2754 25.5781 98.2754 24.2266C98.2754 22.2031 96.502 21 93.666 21H88.627V33ZM91.2754 30.7734V27.7969H94.4395C95.4785 27.7969 96.1113 28.3984 96.1113 29.3906C96.1113 30.25 95.4785 30.7734 94.4395 30.7734H91.2754ZM91.2754 25.9688V23.2656H93.666C94.8457 23.2656 95.5645 23.7656 95.5645 24.5859C95.5645 25.4453 94.8691 25.9688 93.7207 25.9688H91.2754Z" fill="#222222"/>
<path d="M101.195 33H104.023V28.4766H105.406L108.695 33H112.117L107.625 26.8906L112.07 21H108.664L105.055 25.8438H104.023V21H101.195V33Z" fill="#222222"/>
<path d="M118.461 33.2344C121.977 33.2344 124.211 30.7578 124.211 27.0469C124.211 23.3281 121.977 20.8438 118.461 20.8438C114.945 20.8438 112.711 23.3281 112.711 27.0469C112.711 30.7578 114.945 33.2344 118.461 33.2344ZM118.477 30.9688C116.531 30.9688 115.578 29.2344 115.578 27.0391C115.578 24.8438 116.531 23.0859 118.477 23.0859C120.391 23.0859 121.344 24.8438 121.344 27.0391C121.344 29.2344 120.391 30.9688 118.477 30.9688Z" fill="#222222"/>
<path d="M126.611 33H132.424C135.236 33 136.846 31.7266 136.846 29.7422C136.846 28.0625 135.541 26.8906 133.658 26.7266C135.26 26.4297 136.26 25.5781 136.26 24.2266C136.26 22.2031 134.486 21 131.65 21H126.611V33ZM129.26 30.7734V27.7969H132.424C133.463 27.7969 134.096 28.3984 134.096 29.3906C134.096 30.25 133.463 30.7734 132.424 30.7734H129.26ZM129.26 25.9688V23.2656H131.65C132.83 23.2656 133.549 23.7656 133.549 24.5859C133.549 25.4453 132.854 25.9688 131.705 25.9688H129.26Z" fill="#222222"/>
<path d="M144.414 33.2344C147.93 33.2344 150.164 30.7578 150.164 27.0469C150.164 23.3281 147.93 20.8438 144.414 20.8438C140.898 20.8438 138.664 23.3281 138.664 27.0469C138.664 30.7578 140.898 33.2344 144.414 33.2344ZM144.43 30.9688C142.484 30.9688 141.531 29.2344 141.531 27.0391C141.531 24.8438 142.484 23.0859 144.43 23.0859C146.344 23.0859 147.297 24.8438 147.297 27.0391C147.297 29.2344 146.344 30.9688 144.43 30.9688Z" fill="#222222"/>
<path d="M51.1874 14H52.4488L48.8011 9.10796L52.3295 5.27274H51.0681L47.5738 9.05683H47.1136V5.27274H46.0568V14H47.1136V9.99433H48.1874L51.1874 14Z" fill="#222222"/>
<path d="M55.8568 14.1364C57.6296 14.1364 58.8227 12.7898 58.8227 10.7614C58.8227 8.71592 57.6296 7.36933 55.8568 7.36933C54.0841 7.36933 52.8909 8.71592 52.8909 10.7614C52.8909 12.7898 54.0841 14.1364 55.8568 14.1364ZM55.8568 13.233C54.5102 13.233 53.8966 12.0739 53.8966 10.7614C53.8966 9.44887 54.5102 8.27274 55.8568 8.27274C57.2034 8.27274 57.8171 9.44887 57.8171 10.7614C57.8171 12.0739 57.2034 13.233 55.8568 13.233Z" fill="#222222"/>
<path d="M59.5024 8.39205H61.6672V14H62.6729V8.39205H64.8206V7.45455H59.5024V8.39205Z" fill="#222222"/>
<path d="M65.9126 8.39205H68.0774V14H69.083V8.39205H71.2308V7.45455H65.9126V8.39205Z" fill="#222222"/>
<path d="M75.1022 14.1364C76.4318 14.1364 77.4034 13.4716 77.7102 12.483L76.7386 12.2102C76.4829 12.8921 75.8906 13.233 75.1022 13.233C73.9218 13.233 73.1079 12.4702 73.061 11.0682H77.8124V10.6421C77.8124 8.20455 76.3636 7.36933 74.9999 7.36933C73.2272 7.36933 72.0511 8.76705 72.0511 10.7784C72.0511 12.7898 73.2102 14.1364 75.1022 14.1364ZM73.061 10.1989C73.1292 9.18041 73.8494 8.27274 74.9999 8.27274C76.0909 8.27274 76.7897 9.09092 76.7897 10.1989H73.061Z" fill="#222222"/>
<path d="M78.6434 15.875H79.6491V14H84.49V15.875H85.4957V13.0625H84.49V7.45455H80.3309L80.1093 10.0455C79.9516 11.8778 79.7173 12.5085 79.1889 13.0625H78.6434V15.875ZM80.3309 13.0625C80.7911 12.4574 80.9573 11.4134 81.098 10.0455L81.2684 8.39205H83.4843V13.0625H80.3309Z" fill="#222222"/>
<path d="M86.4215 14H87.6317L89.8646 11.1875H90.376V14H91.3817V11.1875H91.8931L94.109 14H95.3192L92.6771 10.6761L95.2851 7.45455H94.0919L91.9101 10.25H91.3817V7.45455H90.376V10.25H89.8306L87.6487 7.45455H86.4556L89.0806 10.6761L86.4215 14Z" fill="#222222"/>
<path d="M37 18.5C37 28.7173 28.7173 37 18.5 37C8.28273 37 0 28.7173 0 18.5C0 8.28273 8.28273 0 18.5 0C28.7173 0 37 8.28273 37 18.5Z" fill="#F3EDE9"/>
<path fill-rule="evenodd" clip-rule="evenodd" d="M14.5747 5.4913L16.1537 3.91222L13.0099 0.76837C14.1473 0.415411 15.3315 0.168842 16.5509 0.0402971L18.2883 1.7777L20.0655 0.000488281C21.3068 0.102755 22.5134 0.327115 23.6735 0.661533L11.0198 13.3152L8.88531 11.1806L8.88809 11.1779L4.2885 6.57828C4.93626 5.80616 5.6457 5.08753 6.40923 4.42997L11.0226 9.04335L12.4401 7.62581L8.01011 3.19578C8.86724 2.60624 9.77634 2.08681 10.7291 1.64577L14.5747 5.4913ZM19.7784 7.68508L25.971 1.49245C26.9384 1.91671 27.8626 2.42106 28.7354 2.99711L21.9129 9.8196L19.7784 7.68508ZM30.5393 4.35144C31.3072 5.0041 32.0212 5.71813 32.6739 6.48594L27.8201 11.3397L29.3994 12.9191L34.0284 8.29009C34.6044 9.16285 35.1088 10.0871 35.533 11.0545L31.5339 15.0536L32.9515 16.4712L36.2971 13.1256C36.6433 14.2712 36.8818 15.4635 37.0009 16.6909L35.086 18.6057L36.9823 20.5019C36.8521 21.7199 36.6041 22.9027 36.2499 24.0386L23.5731 11.3618L23.6989 11.2361L23.6768 11.214L30.5393 4.35144ZM35.3796 26.2966C34.9385 27.2494 34.4191 28.1585 33.8296 29.0156L29.2517 24.4377V20.1687L35.3796 26.2966ZM7.6157 24.1164V20.4912L0.632248 13.5077C0.306034 14.6778 0.0915451 15.8945 0.000995636 17.1455L1.44572 18.5902L0.0130844 20.0229C0.113605 21.2656 0.336494 22.4738 0.669689 23.6353L3.58025 20.7247L5.15926 22.3038L1.50718 25.9558C1.93142 26.9232 2.43576 27.8475 3.0118 28.7203L7.6157 24.1164ZM11.712 27.1253H7.6157V26.9526L4.21913 30.3492C4.8625 31.1251 5.56781 31.8479 6.32749 32.5098L11.712 27.1253ZM19.1391 27.1253H14.8701L8.11138 33.884C8.97388 34.4689 9.88818 34.9832 10.846 35.4184L19.1391 27.1253ZM29.1043 27.1253H21.9863L12.9029 36.2087C14.0336 36.5671 15.2112 36.8203 16.4241 36.9565L18.2584 35.1222L20.14 37.0038C21.3774 36.8969 22.5801 36.6686 23.7361 36.3309L20.3929 32.9877L21.972 31.4087L26.0476 35.4844C27.0117 35.0563 27.9325 34.5486 28.8018 33.9695L24.1065 29.2742L25.5453 27.8354L30.4471 32.7371C31.2192 32.0894 31.9378 31.3799 32.5954 30.6164L29.1043 27.1253ZM1.45567 11.1734C1.87405 10.2009 2.37312 9.27135 2.94446 8.39312L9.64081 15.0895L7.50629 17.224L1.45567 11.1734Z" fill="#222222"/>
</svg>
